<svg xmlns="http://www.w3.org/2000/svg" viewBox="0 0 1180 620" role="img" aria-labelledby="title desc">
  <title id="title">Unijord architecture</title>
  <desc id="desc">Hosts and agents write local event timelines into object storage. Object storage keeps registry, catalog, and immutable segment files. Replay readers discover streams and read finalized history directly from object storage.</desc>

  <defs>
    <linearGradient id="accent" x1="0" y1="0" x2="1" y2="1">
      <stop offset="0" stop-color="#14b8a6"/>
      <stop offset="1" stop-color="#0284c7"/>
    </linearGradient>
    <marker id="arrow-write" markerWidth="12" markerHeight="12" refX="10" refY="6" orient="auto">
      <path d="M0 0 L12 6 L0 12 Z" fill="#475569"/>
    </marker>
    <marker id="arrow-read" markerWidth="12" markerHeight="12" refX="10" refY="6" orient="auto">
      <path d="M0 0 L12 6 L0 12 Z" fill="#0284c7"/>
    </marker>
    <style>
      .bg { fill: #ffffff; }
      .panel { fill: #f8fafc; stroke: #dbe3ea; stroke-width: 1.5; }
      .panel-hot { fill: #f0fdfa; stroke: #99f6e4; stroke-width: 1.5; }
      .panel-warm { fill: #fff7ed; stroke: #fed7aa; stroke-width: 1.5; }
      .panel-blue { fill: #eff6ff; stroke: #bfdbfe; stroke-width: 1.5; }
      .ink { fill: #111827; }
      .muted { fill: #64748b; }
      .soft { fill: #94a3b8; }
      .write-line { stroke: #475569; stroke-width: 3; fill: none; marker-end: url(#arrow-write); }
      .read-line { stroke: #0284c7; stroke-width: 3; fill: none; marker-end: url(#arrow-read); }
      .accent { fill: url(#accent); }
      .title { font: 750 20px ui-sans-serif, system-ui, -apple-system, BlinkMacSystemFont, "Segoe UI", sans-serif; }
      .label { font: 700 16px ui-sans-serif, system-ui, -apple-system, BlinkMacSystemFont, "Segoe UI", sans-serif; }
      .body { font: 500 13px ui-sans-serif, system-ui, -apple-system, BlinkMacSystemFont, "Segoe UI", sans-serif; }
      .tiny { font: 600 12px ui-sans-serif, system-ui, -apple-system, BlinkMacSystemFont, "Segoe UI", sans-serif; }
      .mono { font: 650 12px ui-monospace, SFMono-Regular, Menlo, Monaco, Consolas, "Liberation Mono", monospace; }
    </style>
  </defs>

  <rect class="bg" width="1180" height="620" rx="26"/>

  <text x="54" y="52" class="ink title">Replayable event history stored as object-storage files</text>
  <text x="54" y="78" class="muted body">Agents and workflows write directly to object storage. No centralized broker is required for durable history or replay.</text>

  <!-- Producers -->
  <g transform="translate(54 128)">
    <rect class="panel-hot" x="0" y="0" width="278" height="360" rx="24"/>
    <text x="28" y="40" class="ink title">Hosts / Agents</text>
    <text x="28" y="66" class="muted body">Each writer owns its namespace.</text>

    <g transform="translate(28 104)">
      <rect class="bg" x="0" y="0" width="222" height="54" rx="14" opacity="0.92"/>
      <circle class="accent" cx="24" cy="27" r="8"/>
      <text x="46" y="24" class="ink label">host-a</text>
      <text x="46" y="42" class="muted tiny">hosts/host-a/events</text>
    </g>

    <g transform="translate(28 176)">
      <rect class="bg" x="0" y="0" width="222" height="54" rx="14" opacity="0.92"/>
      <circle class="accent" cx="24" cy="27" r="8"/>
      <text x="46" y="24" class="ink label">agent session</text>
      <text x="46" y="42" class="muted tiny">agents/a7/sessions/42</text>
    </g>

    <g transform="translate(28 248)">
      <rect class="bg" x="0" y="0" width="222" height="54" rx="14" opacity="0.92"/>
      <circle class="accent" cx="24" cy="27" r="8"/>
      <text x="46" y="24" class="ink label">workflow run</text>
      <text x="46" y="42" class="muted tiny">workflows/w19/events</text>
    </g>
  </g>

  <!-- Object storage -->
  <g transform="translate(438 110)">
    <rect class="panel" x="0" y="0" width="330" height="396" rx="26"/>
    <text x="28" y="42" class="ink title">Object Storage</text>
    <text x="28" y="68" class="muted body">S3, GCS, Azure Blob, MinIO</text>

    <g transform="translate(28 102)">
      <rect class="panel-warm" x="0" y="0" width="274" height="72" rx="16"/>
      <text x="20" y="28" class="ink label">Registry files</text>
      <text x="20" y="50" class="muted tiny">hosts, labels, stream discovery</text>
    </g>

    <g transform="translate(28 194)">
      <rect class="panel-blue" x="0" y="0" width="274" height="72" rx="16"/>
      <text x="20" y="28" class="ink label">Catalog files</text>
      <text x="20" y="50" class="muted tiny">head.json, pages, segment refs</text>
    </g>

    <g transform="translate(28 286)">
      <rect class="panel-hot" x="0" y="0" width="274" height="72" rx="16"/>
      <text x="20" y="28" class="ink label">Immutable segments</text>
      <text x="20" y="50" class="muted tiny">block-indexed event bytes</text>
    </g>
  </g>

  <!-- Readers -->
  <g transform="translate(864 128)">
    <rect class="panel" x="0" y="0" width="262" height="360" rx="24"/>
    <text x="28" y="40" class="ink title">Replay Readers</text>
    <text x="28" y="66" class="muted body">Read without a broker.</text>

    <g transform="translate(28 108)">
      <rect class="bg" x="0" y="0" width="206" height="48" rx="14" opacity="0.92"/>
      <text x="20" y="29" class="ink label">Go services</text>
    </g>

    <g transform="translate(28 174)">
      <rect class="bg" x="0" y="0" width="206" height="48" rx="14" opacity="0.92"/>
      <text x="20" y="29" class="ink label">Python jobs</text>
    </g>

    <g transform="translate(28 240)">
      <rect class="bg" x="0" y="0" width="206" height="48" rx="14" opacity="0.92"/>
      <text x="20" y="29" class="ink label">Spark / DuckDB</text>
    </g>
  </g>

  <!-- Main flow -->
  <path class="write-line" d="M352 292 H416"/>
  <path class="read-line" d="M790 292 H842"/>

  <g transform="translate(354 250)">
    <text x="0" y="0" class="ink tiny">write files</text>
  </g>

  <g transform="translate(786 250)">
    <text x="0" y="0" class="ink tiny">read files</text>
  </g>

  <!-- Bottom rule strip -->
  <g transform="translate(54 548)">
    <rect class="panel" x="0" y="-28" width="1072" height="58" rx="18"/>
    <text x="24" y="-4" class="ink tiny">Durable history</text>
    <text x="132" y="-4" class="muted body">registry, catalog, and event segments live together in object storage.</text>
    <text x="24" y="20" class="ink tiny">Open replay</text>
    <text x="132" y="20" class="muted body">the same finalized history can feed services, Python jobs, Spark, DuckDB, and future language readers.</text>
  </g>
</svg>
